<?xml version="1.0" encoding="UTF-8"?>
<!DOCTYPE svg PUBLIC "-//W3C//DTD SVG 1.1//EN" "http://www.w3.org/Graphics/SVG/1.1/DTD/svg11.dtd">
<svg xmlns="http://www.w3.org/2000/svg" version="1.1" width="516px" height="490px" style="shape-rendering:geometricPrecision; text-rendering:geometricPrecision; image-rendering:optimizeQuality; fill-rule:evenodd; clip-rule:evenodd" xmlns:xlink="http://www.w3.org/1999/xlink">
<g><path style="opacity:1" fill="#6b732a" d="M -0.5,-0.5 C 171.5,-0.5 343.5,-0.5 515.5,-0.5C 515.5,53.1667 515.5,106.833 515.5,160.5C 511.107,160.543 510.774,160.043 514.5,159C 509.5,158.667 504.5,158.333 499.5,158C 503.833,157.667 508.167,157.333 512.5,157C 510.833,156.667 509.167,156.333 507.5,156C 508.5,155.667 509.5,155.333 510.5,155C 505.5,154.667 500.5,154.333 495.5,154C 499.833,153.667 504.167,153.333 508.5,153C 505.5,152.667 502.5,152.333 499.5,152C 501.5,151.667 503.5,151.333 505.5,151C 500.833,150.667 496.167,150.333 491.5,150C 495.5,149.667 499.5,149.333 503.5,149C 502.167,148.667 500.833,148.333 499.5,148C 499.833,147.667 500.167,147.333 500.5,147C 496.167,146.667 491.833,146.333 487.5,146C 491.167,145.667 494.833,145.333 498.5,145C 496.167,144.667 493.833,144.333 491.5,144C 492.833,143.667 494.167,143.333 495.5,143C 490.167,142.667 484.833,142.333 479.5,142C 483.833,141.667 488.167,141.333 492.5,141C 491.833,140.333 491.167,139.667 490.5,139C 485.5,138.667 480.5,138.333 475.5,138C 479.5,137.667 483.5,137.333 487.5,137C 486.167,136.667 484.833,136.333 483.5,136C 483.833,135.667 484.167,135.333 484.5,135C 478.833,134.667 473.167,134.333 467.5,134C 472.5,133.667 477.5,133.333 482.5,133C 480.167,132.667 477.833,132.333 475.5,132C 476.833,131.667 478.167,131.333 479.5,131C 474.167,130.667 468.833,130.333 463.5,130C 467.833,129.667 472.167,129.333 476.5,129C 473.5,128.667 470.5,128.333 467.5,128C 469.5,127.667 471.5,127.333 473.5,127C 467.5,126.667 461.5,126.333 455.5,126C 460.5,125.667 465.5,125.333 470.5,125C 464.386,122.942 458.053,121.942 451.5,122C 455.5,121.667 459.5,121.333 463.5,121C 460.833,120.667 458.167,120.333 455.5,120C 457.167,119.667 458.833,119.333 460.5,119C 454.833,118.667 449.167,118.333 443.5,118C 448.167,117.667 452.833,117.333 457.5,117C 455.5,116.667 453.5,116.333 451.5,116C 452.5,115.667 453.5,115.333 454.5,115C 448.167,114.667 441.833,114.333 435.5,114C 440.5,113.667 445.5,113.333 450.5,113C 448.167,112.667 445.833,112.333 443.5,112C 444.5,111.667 445.5,111.333 446.5,111C 440.167,110.667 433.833,110.333 427.5,110C 432.833,109.667 438.167,109.333 443.5,109C 437.024,106.857 430.358,106.024 423.5,106.5C 423.5,94.8333 423.5,83.1667 423.5,71.5C 314.001,70.5005 204.335,70.1672 94.5,70.5C 94.5,82.5 94.5,94.5 94.5,106.5C 87.6423,106.024 80.9756,106.857 74.5,109C 79.8333,109.333 85.1667,109.667 90.5,110C 84.1667,110.333 77.8333,110.667 71.5,111C 72.5,111.333 73.5,111.667 74.5,112C 72.1667,112.333 69.8333,112.667 67.5,113C 72.5,113.333 77.5,113.667 82.5,114C 76.1667,114.333 69.8333,114.667 63.5,115C 64.5,115.333 65.5,115.667 66.5,116C 64.5,116.333 62.5,116.667 60.5,117C 65.1667,117.333 69.8333,117.667 74.5,118C 68.8333,118.333 63.1667,118.667 57.5,119C 59.1667,119.333 60.8333,119.667 62.5,120C 59.8333,120.333 57.1667,120.667 54.5,121C 58.5,121.333 62.5,121.667 66.5,122C 59.9475,121.942 53.6142,122.942 47.5,125C 52.5,125.333 57.5,125.667 62.5,126C 56.5,126.333 50.5,126.667 44.5,127C 46.5,127.333 48.5,127.667 50.5,128C 47.5,128.333 44.5,128.667 41.5,129C 45.8333,129.333 50.1667,129.667 54.5,130C 49.1667,130.333 43.8333,130.667 38.5,131C 39.8333,131.333 41.1667,131.667 42.5,132C 40.1667,132.333 37.8333,132.667 35.5,133C 40.5,133.333 45.5,133.667 50.5,134C 44.8333,134.333 39.1667,134.667 33.5,135C 33.8333,135.333 34.1667,135.667 34.5,136C 33.1667,136.333 31.8333,136.667 30.5,137C 34.5,137.333 38.5,137.667 42.5,138C 37.5,138.333 32.5,138.667 27.5,139C 26.8333,139.667 26.1667,140.333 25.5,141C 29.8333,141.333 34.1667,141.667 38.5,142C 33.1667,142.333 27.8333,142.667 22.5,143C 23.8333,143.333 25.1667,143.667 26.5,144C 24.1667,144.333 21.8333,144.667 19.5,145C 23.1667,145.333 26.8333,145.667 30.5,146C 26.1667,146.333 21.8333,146.667 17.5,147C 17.8333,147.333 18.1667,147.667 18.5,148C 17.1667,148.333 15.8333,148.667 14.5,149C 18.5,149.333 22.5,149.667 26.5,150C 21.8333,150.333 17.1667,150.667 12.5,151C 14.5,151.333 16.5,151.667 18.5,152C 15.5,152.333 12.5,152.667 9.5,153C 13.8333,153.333 18.1667,153.667 22.5,154C 17.5,154.333 12.5,154.667 7.5,155C 8.5,155.333 9.5,155.667 10.5,156C 8.83333,156.333 7.16667,156.667 5.5,157C 9.83333,157.333 14.1667,157.667 18.5,158C 13.5,158.333 8.5,158.667 3.5,159C 4.5,159.333 5.5,159.667 6.5,160C 4.5,160.333 2.5,160.667 0.5,161C 3.83333,161.333 7.16667,161.667 10.5,162C 6.84841,162.499 3.18174,162.665 -0.5,162.5C -0.5,108.167 -0.5,53.8333 -0.5,-0.5 Z"/></g>
<g><path style="opacity:1" fill="#887626" d="M 423.5,71.5 C 314.167,71.5 204.833,71.5 95.5,71.5C 95.5,105.167 95.5,138.833 95.5,172.5C 94.5026,150.673 94.1693,128.673 94.5,106.5C 94.5,94.5 94.5,82.5 94.5,70.5C 204.335,70.1672 314.001,70.5005 423.5,71.5 Z"/></g>
<g><path style="opacity:1" fill="#d07c1b" d="M 423.5,71.5 C 423.5,83.1667 423.5,94.8333 423.5,106.5C 423.5,128.5 423.5,150.5 423.5,172.5C 418.167,172.5 412.833,172.5 407.5,172.5C 407.5,144.167 407.5,115.833 407.5,87.5C 308.668,86.5006 209.668,86.1672 110.5,86.5C 110.5,115.167 110.5,143.833 110.5,172.5C 105.5,172.5 100.5,172.5 95.5,172.5C 95.5,138.833 95.5,105.167 95.5,71.5C 204.833,71.5 314.167,71.5 423.5,71.5 Z"/></g>
<g><path style="opacity:1" fill="#c07a1f" d="M 407.5,87.5 C 308.833,87.5 210.167,87.5 111.5,87.5C 111.831,116.005 111.498,144.338 110.5,172.5C 110.5,143.833 110.5,115.167 110.5,86.5C 209.668,86.1672 308.668,86.5006 407.5,87.5 Z"/></g>
<g><path style="opacity:1" fill="#6e752d" d="M 407.5,87.5 C 407.5,115.833 407.5,144.167 407.5,172.5C 412.833,172.5 418.167,172.5 423.5,172.5C 423.5,150.5 423.5,128.5 423.5,106.5C 430.358,106.024 437.024,106.857 443.5,109C 438.167,109.333 432.833,109.667 427.5,110C 433.833,110.333 440.167,110.667 446.5,111C 445.5,111.333 444.5,111.667 443.5,112C 445.833,112.333 448.167,112.667 450.5,113C 445.5,113.333 440.5,113.667 435.5,114C 441.833,114.333 448.167,114.667 454.5,115C 453.5,115.333 452.5,115.667 451.5,116C 453.5,116.333 455.5,116.667 457.5,117C 452.833,117.333 448.167,117.667 443.5,118C 449.167,118.333 454.833,118.667 460.5,119C 458.833,119.333 457.167,119.667 455.5,120C 458.167,120.333 460.833,120.667 463.5,121C 459.5,121.333 455.5,121.667 451.5,122C 458.053,121.942 464.386,122.942 470.5,125C 465.5,125.333 460.5,125.667 455.5,126C 461.5,126.333 467.5,126.667 473.5,127C 471.5,127.333 469.5,127.667 467.5,128C 470.5,128.333 473.5,128.667 476.5,129C 472.167,129.333 467.833,129.667 463.5,130C 468.833,130.333 474.167,130.667 479.5,131C 478.167,131.333 476.833,131.667 475.5,132C 477.833,132.333 480.167,132.667 482.5,133C 477.5,133.333 472.5,133.667 467.5,134C 473.167,134.333 478.833,134.667 484.5,135C 484.167,135.333 483.833,135.667 483.5,136C 484.833,136.333 486.167,136.667 487.5,137C 483.5,137.333 479.5,137.667 475.5,138C 480.5,138.333 485.5,138.667 490.5,139C 491.167,139.667 491.833,140.333 492.5,141C 488.167,141.333 483.833,141.667 479.5,142C 484.833,142.333 490.167,142.667 495.5,143C 494.167,143.333 492.833,143.667 491.5,144C 493.833,144.333 496.167,144.667 498.5,145C 494.833,145.333 491.167,145.667 487.5,146C 491.833,146.333 496.167,146.667 500.5,147C 500.167,147.333 499.833,147.667 499.5,148C 500.833,148.333 502.167,148.667 503.5,149C 499.5,149.333 495.5,149.667 491.5,150C 496.167,150.333 500.833,150.667 505.5,151C 503.5,151.333 501.5,151.667 499.5,152C 502.5,152.333 505.5,152.667 508.5,153C 504.167,153.333 499.833,153.667 495.5,154C 500.5,154.333 505.5,154.667 510.5,155C 509.5,155.333 508.5,155.667 507.5,156C 509.167,156.333 510.833,156.667 512.5,157C 508.167,157.333 503.833,157.667 499.5,158C 504.5,158.333 509.5,158.667 514.5,159C 510.774,160.043 511.107,160.543 515.5,160.5C 515.5,270.167 515.5,379.833 515.5,489.5C 500.833,489.5 486.167,489.5 471.5,489.5C 467.688,488.676 463.688,488.176 459.5,488C 463.833,487.667 468.167,487.333 472.5,487C 465.833,486.333 465.833,485.667 472.5,485C 455.167,484.333 455.167,483.667 472.5,483C 471.366,481.984 471.699,481.317 473.5,481C 454.833,480.333 454.833,479.667 473.5,479C 465.5,478.333 465.5,477.667 473.5,477C 454.833,476.333 454.833,475.667 473.5,475C 471.122,474.026 471.456,473.359 474.5,473C 459.833,472.333 459.833,471.667 474.5,471C 465.167,470.333 465.167,469.667 474.5,469C 454.5,468.333 454.5,467.667 474.5,467C 470.815,466.086 471.148,465.419 475.5,465C 459.5,464.333 459.5,463.667 475.5,463C 470.167,462.333 470.167,461.667 475.5,461C 454.167,460.333 454.167,459.667 475.5,459C 470.167,458.333 470.167,457.667 475.5,457C 459.5,456.333 459.5,455.667 475.5,455C 470.167,454.333 470.167,453.667 475.5,453C 454.177,452.168 454.177,451.668 475.5,451.5C 475.5,450.5 475.5,449.5 475.5,448.5C 459.514,448.332 459.514,447.832 475.5,447C 470.167,446.333 470.167,445.667 475.5,445C 454.167,444.333 454.167,443.667 475.5,443C 470.167,442.333 470.167,441.667 475.5,441C 459.5,440.333 459.5,439.667 475.5,439C 470.167,438.333 470.167,437.667 475.5,437C 470.167,436.667 464.833,436.333 459.5,436C 464.5,435.667 469.5,435.333 474.5,435C 470.5,434.333 470.5,433.667 474.5,433C 459.833,432.333 459.833,431.667 474.5,431C 465.167,430.333 465.167,429.667 474.5,429C 454.5,428.333 454.5,427.667 474.5,427C 470.5,426.333 470.5,425.667 474.5,425C 469.5,424.667 464.5,424.333 459.5,424C 464.167,423.667 468.833,423.333 473.5,423C 465.5,422.333 465.5,421.667 473.5,421C 454.833,420.333 454.833,419.667 473.5,419C 471.699,418.683 471.366,418.016 472.5,417C 455.167,416.333 455.167,415.667 472.5,415C 465.833,414.333 465.833,413.667 472.5,413C 468.167,412.667 463.833,412.333 459.5,412C 463.5,411.667 467.5,411.333 471.5,411C 466.167,410.333 466.167,409.667 471.5,409C 455.5,408.333 455.5,407.667 471.5,407C 467.148,406.581 466.815,405.914 470.5,405C 450.5,404.333 450.5,403.667 470.5,403C 467.456,402.641 467.122,401.974 469.5,401C 456.167,400.333 456.167,399.667 469.5,399C 462.497,398.503 462.163,397.837 468.5,397C 445.833,396.333 445.833,395.667 468.5,395C 468.043,394.586 467.709,394.086 467.5,393.5C 451.541,392.339 451.541,391.505 467.5,391C 464.833,390.667 462.167,390.333 459.5,390C 461.833,389.667 464.167,389.333 466.5,389C 446.5,388.333 446.5,387.667 466.5,387C 463.456,386.641 463.122,385.974 465.5,385C 460.833,384.667 456.167,384.333 451.5,384C 455.833,383.667 460.167,383.333 464.5,383C 457.833,382.333 457.833,381.667 464.5,381C 458.833,380.667 453.167,380.333 447.5,380C 452.833,379.667 458.167,379.333 463.5,379C 459.148,378.581 458.815,377.914 462.5,377C 447.833,376.333 447.833,375.667 462.5,375C 454.166,374.479 453.833,373.813 461.5,373C 455.5,372.667 449.5,372.333 443.5,372C 449.167,371.667 454.833,371.333 460.5,371C 460.043,370.586 459.709,370.086 459.5,369.5C 443.541,368.339 443.541,367.505 459.5,367C 456.833,366.667 454.167,366.333 451.5,366C 453.833,365.667 456.167,365.333 458.5,365C 453.5,364.667 448.5,364.333 443.5,364C 448.167,363.667 452.833,363.333 457.5,363C 455.699,362.683 455.366,362.016 456.5,361C 452.167,360.667 447.833,360.333 443.5,360C 447.5,359.667 451.5,359.333 455.5,359C 451.148,358.581 450.815,357.914 454.5,357C 449.5,356.667 444.5,356.333 439.5,356C 444.167,355.667 448.833,355.333 453.5,355C 451.699,354.683 451.366,354.016 452.5,353C 448.167,352.667 443.833,352.333 439.5,352C 443.5,351.667 447.5,351.333 451.5,351C 448.833,350.667 446.167,350.333 443.5,350C 445.833,349.667 448.167,349.333 450.5,349C 445.5,348.667 440.5,348.333 435.5,348C 440.167,347.667 444.833,347.333 449.5,347C 447.699,346.683 447.366,346.016 448.5,345C 444.167,344.667 439.833,344.333 435.5,344C 439.5,343.667 443.5,343.333 447.5,343C 443.148,342.581 442.815,341.914 446.5,341C 440.167,340.667 433.833,340.333 427.5,340C 433.5,339.667 439.5,339.333 445.5,339C 444.692,338.692 444.025,338.192 443.5,337.5C 438.198,336.671 432.864,336.171 427.5,336C 432.5,335.667 437.5,335.333 442.5,335C 434.166,334.479 433.833,333.813 441.5,333C 435.833,332.667 430.167,332.333 424.5,332C 429.833,331.667 435.167,331.333 440.5,331C 438.833,330.667 437.167,330.333 435.5,330C 436.5,329.667 437.5,329.333 438.5,329C 433.833,328.667 429.167,328.333 424.5,328C 428.833,327.667 433.167,327.333 437.5,327C 430.497,326.503 430.163,325.837 436.5,325C 434.833,324.667 433.167,324.333 431.5,324C 432.5,323.667 433.5,323.333 434.5,323C 431.167,322.667 427.833,322.333 424.5,322C 427.5,321.667 430.5,321.333 433.5,321C 431.5,320.667 429.5,320.333 427.5,320C 428.833,319.667 430.167,319.333 431.5,319C 423.166,318.479 422.833,317.813 430.5,317C 429.28,315.37 427.28,314.37 424.5,314C 427.167,313.333 427.167,312.667 424.5,312C 424.833,311.667 425.167,311.333 425.5,311C 424.86,306.732 424.193,302.565 423.5,298.5C 418.167,298.5 412.833,298.5 407.5,298.5C 408.952,297.698 410.618,297.198 412.5,297C 409.5,296.667 406.5,296.333 403.5,296C 405.833,295.667 408.167,295.333 410.5,295C 402.833,294.667 395.167,294.333 387.5,294C 394.5,293.667 401.5,293.333 408.5,293C 406.833,292.667 405.167,292.333 403.5,292C 404.5,291.667 405.5,291.333 406.5,291C 400.167,290.667 393.833,290.333 387.5,290C 393.167,289.667 398.833,289.333 404.5,289C 401.5,288.667 398.5,288.333 395.5,288C 397.5,287.667 399.5,287.333 401.5,287C 394.167,286.667 386.833,286.333 379.5,286C 386.167,285.667 392.833,285.333 399.5,285C 398.167,284.667 396.833,284.333 395.5,284C 396.167,283.667 396.833,283.333 397.5,283C 391.5,282.667 385.5,282.333 379.5,282C 384.5,281.667 389.5,281.333 394.5,281C 392.167,280.667 389.833,280.333 387.5,280C 389.167,279.667 390.833,279.333 392.5,279C 384.167,278.667 375.833,278.333 367.5,278C 374.833,277.667 382.167,277.333 389.5,277C 388.692,276.692 388.025,276.192 387.5,275.5C 379.521,274.668 371.521,274.168 363.5,274C 370.5,273.667 377.5,273.333 384.5,273C 381.5,272.667 378.5,272.333 375.5,272C 377.5,271.667 379.5,271.333 381.5,271C 372.833,270.667 364.167,270.333 355.5,270C 363.167,269.667 370.833,269.333 378.5,269C 376.167,268.667 373.833,268.333 371.5,268C 373.058,267.79 374.391,267.29 375.5,266.5C 383.5,266.5 391.5,266.5 399.5,266.5C 399.5,261.5 399.5,256.5 399.5,251.5C 388.162,251.667 376.828,251.5 365.5,251C 359.075,249.573 354.908,245.74 353,239.5C 349.759,228.813 349.759,218.146 353,207.5C 355.72,202.449 359.887,199.282 365.5,198C 376.828,197.5 388.162,197.333 399.5,197.5C 399.5,192.5 399.5,187.5 399.5,182.5C 386.496,182.333 373.496,182.5 360.5,183C 344.823,185.676 335.323,194.843 332,210.5C 331.01,221.937 331.51,233.27 333.5,244.5C 329.627,246.43 325.294,247.097 320.5,246.5C 320.5,232.5 320.5,218.5 320.5,204.5C 314.5,204.5 308.5,204.5 302.5,204.5C 302.5,220.5 302.5,236.5 302.5,252.5C 296.833,252.5 291.167,252.5 285.5,252.5C 282.832,251.543 281.332,249.543 281,246.5C 280.5,232.504 280.333,218.504 280.5,204.5C 274.833,204.5 269.167,204.5 263.5,204.5C 263.5,214.5 263.5,224.5 263.5,234.5C 254.5,234.5 245.5,234.5 236.5,234.5C 236.5,229.167 236.5,223.833 236.5,218.5C 241.5,218.5 246.5,218.5 251.5,218.5C 251.5,214.167 251.5,209.833 251.5,205.5C 246.695,204.513 241.695,204.179 236.5,204.5C 236.825,196.981 236.492,189.648 235.5,182.5C 229.833,182.5 224.167,182.5 218.5,182.5C 218.5,189.833 218.5,197.167 218.5,204.5C 215.167,204.5 211.833,204.5 208.5,204.5C 208.5,209.167 208.5,213.833 208.5,218.5C 211.833,218.5 215.167,218.5 218.5,218.5C 218.5,227.833 218.5,237.167 218.5,246.5C 206.495,246.333 194.495,246.5 182.5,247C 186.5,247.333 190.5,247.667 194.5,248C 188.833,248.333 183.167,248.667 177.5,249C 188.5,249.333 199.5,249.667 210.5,250C 197.838,250.5 185.171,250.667 172.5,250.5C 172.5,239.833 172.5,229.167 172.5,218.5C 176.936,218.21 181.27,218.71 185.5,220C 187.926,223.801 188.926,227.968 188.5,232.5C 193.833,232.5 199.167,232.5 204.5,232.5C 204.666,227.821 204.499,223.155 204,218.5C 202.5,211.667 198.333,207.5 191.5,206C 179.505,205.5 167.505,205.333 155.5,205.5C 154.503,225.66 154.17,245.993 154.5,266.5C 150.486,266.334 146.486,266.501 142.5,267C 143.833,267.333 145.167,267.667 146.5,268C 144.167,268.333 141.833,268.667 139.5,269C 147.167,269.333 154.833,269.667 162.5,270C 153.833,270.333 145.167,270.667 136.5,271C 138.5,271.333 140.5,271.667 142.5,272C 139.5,272.333 136.5,272.667 133.5,273C 140.5,273.333 147.5,273.667 154.5,274C 146.479,274.168 138.479,274.668 130.5,275.5C 129.975,276.192 129.308,276.692 128.5,277C 135.833,277.333 143.167,277.667 150.5,278C 142.167,278.333 133.833,278.667 125.5,279C 127.167,279.333 128.833,279.667 130.5,280C 128.167,280.333 125.833,280.667 123.5,281C 128.5,281.333 133.5,281.667 138.5,282C 132.5,282.333 126.5,282.667 120.5,283C 121.167,283.333 121.833,283.667 122.5,284C 121.167,284.333 119.833,284.667 118.5,285C 125.167,285.333 131.833,285.667 138.5,286C 131.167,286.333 123.833,286.667 116.5,287C 118.5,287.333 120.5,287.667 122.5,288C 119.5,288.333 116.5,288.667 113.5,289C 119.167,289.333 124.833,289.667 130.5,290C 124.167,290.333 117.833,290.667 111.5,291C 112.5,291.333 113.5,291.667 114.5,292C 112.833,292.333 111.167,292.667 109.5,293C 116.5,293.333 123.5,293.667 130.5,294C 122.833,294.333 115.167,294.667 107.5,295C 109.833,295.333 112.167,295.667 114.5,296C 111.305,296.181 108.305,296.681 105.5,297.5C 101.958,297.187 98.6248,297.521 95.5,298.5C 95.5,332.167 95.5,365.833 95.5,399.5C 94.5026,377.34 94.1692,355.006 94.5,332.5C 88.4908,332.334 82.4908,332.501 76.5,333C 84.1672,333.813 83.8339,334.479 75.5,335C 80.5,335.333 85.5,335.667 90.5,336C 85.1358,336.171 79.8025,336.671 74.5,337.5C 73.9747,338.192 73.3081,338.692 72.5,339C 78.5,339.333 84.5,339.667 90.5,340C 84.1667,340.333 77.8333,340.667 71.5,341C 75.1851,341.914 74.8518,342.581 70.5,343C 74.5,343.333 78.5,343.667 82.5,344C 78.1667,344.333 73.8333,344.667 69.5,345C 70.6341,346.016 70.3008,346.683 68.5,347C 73.1667,347.333 77.8333,347.667 82.5,348C 77.5,348.333 72.5,348.667 67.5,349C 69.8333,349.333 72.1667,349.667 74.5,350C 71.8333,350.333 69.1667,350.667 66.5,351C 70.5,351.333 74.5,351.667 78.5,352C 74.1667,352.333 69.8333,352.667 65.5,353C 66.6341,354.016 66.3008,354.683 64.5,355C 69.1667,355.333 73.8333,355.667 78.5,356C 73.5,356.333 68.5,356.667 63.5,357C 67.1851,357.914 66.8518,358.581 62.5,359C 66.5,359.333 70.5,359.667 74.5,360C 70.1667,360.333 65.8333,360.667 61.5,361C 62.6341,362.016 62.3008,362.683 60.5,363C 65.1667,363.333 69.8333,363.667 74.5,364C 69.5,364.333 64.5,364.667 59.5,365C 61.8333,365.333 64.1667,365.667 66.5,366C 63.8333,366.333 61.1667,366.667 58.5,367C 74.4589,367.505 74.4589,368.339 58.5,369.5C 58.2907,370.086 57.9574,370.586 57.5,371C 63.1667,371.333 68.8333,371.667 74.5,372C 68.5,372.333 62.5,372.667 56.5,373C 64.1672,373.813 63.8339,374.479 55.5,375C 70.1667,375.667 70.1667,376.333 55.5,377C 59.1851,377.914 58.8518,378.581 54.5,379C 59.8333,379.333 65.1667,379.667 70.5,380C 64.8333,380.333 59.1667,380.667 53.5,381C 60.1667,381.667 60.1667,382.333 53.5,383C 57.8333,383.333 62.1667,383.667 66.5,384C 61.8333,384.333 57.1667,384.667 52.5,385C 54.8776,385.974 54.5443,386.641 51.5,387C 71.5,387.667 71.5,388.333 51.5,389C 53.8333,389.333 56.1667,389.667 58.5,390C 55.8333,390.333 53.1667,390.667 50.5,391C 66.4589,391.505 66.4589,392.339 50.5,393.5C 50.2907,394.086 49.9574,394.586 49.5,395C 72.1667,395.667 72.1667,396.333 49.5,397C 55.8365,397.837 55.5032,398.503 48.5,399C 61.8333,399.667 61.8333,400.333 48.5,401C 50.8776,401.974 50.5443,402.641 47.5,403C 67.5,403.667 67.5,404.333 47.5,405C 51.1851,405.914 50.8518,406.581 46.5,407C 62.5,407.667 62.5,408.333 46.5,409C 51.8333,409.667 51.8333,410.333 46.5,411C 50.5,411.333 54.5,411.667 58.5,412C 54.1667,412.333 49.8333,412.667 45.5,413C 52.1667,413.667 52.1667,414.333 45.5,415C 62.8333,415.667 62.8333,416.333 45.5,417C 46.6341,418.016 46.3008,418.683 44.5,419C 63.1667,419.667 63.1667,420.333 44.5,421C 52.5,421.667 52.5,422.333 44.5,423C 49.1667,423.333 53.8333,423.667 58.5,424C 53.5,424.333 48.5,424.667 43.5,425C 47.5,425.667 47.5,426.333 43.5,427C 63.5,427.667 63.5,428.333 43.5,429C 52.8333,429.667 52.8333,430.333 43.5,431C 58.1667,431.667 58.1667,432.333 43.5,433C 47.5,433.667 47.5,434.333 43.5,435C 48.5,435.333 53.5,435.667 58.5,436C 53.1667,436.333 47.8333,436.667 42.5,437C 47.8333,437.667 47.8333,438.333 42.5,439C 58.5,439.667 58.5,440.333 42.5,441C 47.8333,441.667 47.8333,442.333 42.5,443C 63.8333,443.667 63.8333,444.333 42.5,445C 47.8333,445.667 47.8333,446.333 42.5,447C 58.4862,447.832 58.4862,448.332 42.5,448.5C 42.5,449.5 42.5,450.5 42.5,451.5C 63.8229,451.668 63.8229,452.168 42.5,453C 47.8333,453.667 47.8333,454.333 42.5,455C 58.5,455.667 58.5,456.333 42.5,457C 47.8333,457.667 47.8333,458.333 42.5,459C 63.8333,459.667 63.8333,460.333 42.5,461C 47.8333,461.667 47.8333,462.333 42.5,463C 58.5,463.667 58.5,464.333 42.5,465C 46.8518,465.419 47.1851,466.086 43.5,467C 63.5,467.667 63.5,468.333 43.5,469C 52.8333,469.667 52.8333,470.333 43.5,471C 58.1667,471.667 58.1667,472.333 43.5,473C 46.5443,473.359 46.8776,474.026 44.5,475C 63.1667,475.667 63.1667,476.333 44.5,477C 52.5,477.667 52.5,478.333 44.5,479C 63.1667,479.667 63.1667,480.333 44.5,481C 46.3008,481.317 46.6341,481.984 45.5,483C 62.8333,483.667 62.8333,484.333 45.5,485C 52.1667,485.667 52.1667,486.333 45.5,487C 49.8333,487.333 54.1667,487.667 58.5,488C 54.3123,488.176 50.3123,488.676 46.5,489.5C 30.8333,489.5 15.1667,489.5 -0.5,489.5C -0.5,380.5 -0.5,271.5 -0.5,162.5C 3.18174,162.665 6.84841,162.499 10.5,162C 7.16667,161.667 3.83333,161.333 0.5,161C 2.5,160.667 4.5,160.333 6.5,160C 5.5,159.667 4.5,159.333 3.5,159C 8.5,158.667 13.5,158.333 18.5,158C 14.1667,157.667 9.83333,157.333 5.5,157C 7.16667,156.667 8.83333,156.333 10.5,156C 9.5,155.667 8.5,155.333 7.5,155C 12.5,154.667 17.5,154.333 22.5,154C 18.1667,153.667 13.8333,153.333 9.5,153C 12.5,152.667 15.5,152.333 18.5,152C 16.5,151.667 14.5,151.333 12.5,151C 17.1667,150.667 21.8333,150.333 26.5,150C 22.5,149.667 18.5,149.333 14.5,149C 15.8333,148.667 17.1667,148.333 18.5,148C 18.1667,147.667 17.8333,147.333 17.5,147C 21.8333,146.667 26.1667,146.333 30.5,146C 26.8333,145.667 23.1667,145.333 19.5,145C 21.8333,144.667 24.1667,144.333 26.5,144C 25.1667,143.667 23.8333,143.333 22.5,143C 27.8333,142.667 33.1667,142.333 38.5,142C 34.1667,141.667 29.8333,141.333 25.5,141C 26.1667,140.333 26.8333,139.667 27.5,139C 32.5,138.667 37.5,138.333 42.5,138C 38.5,137.667 34.5,137.333 30.5,137C 31.8333,136.667 33.1667,136.333 34.5,136C 34.1667,135.667 33.8333,135.333 33.5,135C 39.1667,134.667 44.8333,134.333 50.5,134C 45.5,133.667 40.5,133.333 35.5,133C 37.8333,132.667 40.1667,132.333 42.5,132C 41.1667,131.667 39.8333,131.333 38.5,131C 43.8333,130.667 49.1667,130.333 54.5,130C 50.1667,129.667 45.8333,129.333 41.5,129C 44.5,128.667 47.5,128.333 50.5,128C 48.5,127.667 46.5,127.333 44.5,127C 50.5,126.667 56.5,126.333 62.5,126C 57.5,125.667 52.5,125.333 47.5,125C 53.6142,122.942 59.9475,121.942 66.5,122C 62.5,121.667 58.5,121.333 54.5,121C 57.1667,120.667 59.8333,120.333 62.5,120C 60.8333,119.667 59.1667,119.333 57.5,119C 63.1667,118.667 68.8333,118.333 74.5,118C 69.8333,117.667 65.1667,117.333 60.5,117C 62.5,116.667 64.5,116.333 66.5,116C 65.5,115.667 64.5,115.333 63.5,115C 69.8333,114.667 76.1667,114.333 82.5,114C 77.5,113.667 72.5,113.333 67.5,113C 69.8333,112.667 72.1667,112.333 74.5,112C 73.5,111.667 72.5,111.333 71.5,111C 77.8333,110.667 84.1667,110.333 90.5,110C 85.1667,109.667 79.8333,109.333 74.5,109C 80.9756,106.857 87.6423,106.024 94.5,106.5C 94.1693,128.673 94.5026,150.673 95.5,172.5C 100.5,172.5 105.5,172.5 110.5,172.5C 111.498,144.338 111.831,116.005 111.5,87.5C 210.167,87.5 308.833,87.5 407.5,87.5 Z"/></g>
<g><path style="opacity:1" fill="#f9fdf3" d="M 23.5,183.5 C 30.2347,182.173 37.068,182.173 44,183.5C 52.196,203.754 60.196,224.088 68,244.5C 76.5917,224.311 84.9251,203.977 93,183.5C 99.7524,182.355 106.586,182.189 113.5,183C 101.167,210.667 88.8333,238.333 76.5,266C 70.4724,266.83 64.4724,266.664 58.5,265.5C 47.1982,237.902 35.5315,210.569 23.5,183.5 Z"/></g>
<g><path style="opacity:1" fill="#fafff5" d="M 122.5,182.5 C 127.833,182.5 133.167,182.5 138.5,182.5C 138.5,187.833 138.5,193.167 138.5,198.5C 138.5,193.167 138.5,187.833 138.5,182.5C 133.167,182.5 127.833,182.5 122.5,182.5 Z"/></g>
<g><path style="opacity:1" fill="#f7fbf1" d="M 235.5,182.5 C 235.5,190.167 235.5,197.833 235.5,205.5C 240.833,205.5 246.167,205.5 251.5,205.5C 251.5,209.833 251.5,214.167 251.5,218.5C 246.5,218.5 241.5,218.5 236.5,218.5C 235.342,227.991 235.175,237.658 236,247.5C 236.833,250.333 238.667,252.167 241.5,253C 244.817,253.498 248.15,253.665 251.5,253.5C 251.5,257.833 251.5,262.167 251.5,266.5C 244.825,266.666 238.158,266.5 231.5,266C 223.074,262.336 218.741,255.836 218.5,246.5C 218.5,237.167 218.5,227.833 218.5,218.5C 215.167,218.5 211.833,218.5 208.5,218.5C 208.5,213.833 208.5,209.167 208.5,204.5C 211.833,204.5 215.167,204.5 218.5,204.5C 218.5,197.167 218.5,189.833 218.5,182.5C 224.167,182.5 229.833,182.5 235.5,182.5 Z"/></g>
<g><path style="opacity:1" fill="#f9fdf3" d="M 375.5,266.5 C 355.691,269.601 341.691,262.268 333.5,244.5C 331.51,233.27 331.01,221.937 332,210.5C 335.323,194.843 344.823,185.676 360.5,183C 373.496,182.5 386.496,182.333 399.5,182.5C 399.5,187.5 399.5,192.5 399.5,197.5C 388.162,197.333 376.828,197.5 365.5,198C 359.887,199.282 355.72,202.449 353,207.5C 349.759,218.146 349.759,228.813 353,239.5C 354.908,245.74 359.075,249.573 365.5,251C 376.828,251.5 388.162,251.667 399.5,251.5C 399.5,256.5 399.5,261.5 399.5,266.5C 391.5,266.5 383.5,266.5 375.5,266.5 Z"/></g>
<g><path style="opacity:1" fill="#f9fdf3" d="M 411.5,182.5 C 417.167,182.5 422.833,182.5 428.5,182.5C 428.5,210.5 428.5,238.5 428.5,266.5C 422.833,266.5 417.167,266.5 411.5,266.5C 411.5,238.5 411.5,210.5 411.5,182.5 Z"/></g>
<g><path style="opacity:1" fill="#9da371" d="M 122.5,182.5 C 122.5,187.833 122.5,193.167 122.5,198.5C 127.833,198.5 133.167,198.5 138.5,198.5C 133.025,199.489 127.358,199.822 121.5,199.5C 121.178,193.642 121.511,187.975 122.5,182.5 Z"/></g>
<g><path style="opacity:1" fill="#adb387" d="M 235.5,182.5 C 236.492,189.648 236.825,196.981 236.5,204.5C 241.695,204.179 246.695,204.513 251.5,205.5C 246.167,205.5 240.833,205.5 235.5,205.5C 235.5,197.833 235.5,190.167 235.5,182.5 Z"/></g>
<g><path style="opacity:1" fill="#afb58a" d="M 464.5,205.5 C 474.653,204.506 484.986,204.172 495.5,204.5C 495.819,209.363 495.486,214.03 494.5,218.5C 494.5,214.167 494.5,209.833 494.5,205.5C 484.5,205.5 474.5,205.5 464.5,205.5 Z"/></g>
<g><path style="opacity:1" fill="#b8bd96" d="M 138.5,205.5 C 133.167,205.5 127.833,205.5 122.5,205.5C 122.5,225.833 122.5,246.167 122.5,266.5C 121.503,246.007 121.169,225.34 121.5,204.5C 127.358,204.178 133.025,204.511 138.5,205.5 Z"/></g>
<g><path style="opacity:1" fill="#fafff5" d="M 138.5,205.5 C 138.5,225.833 138.5,246.167 138.5,266.5C 133.167,266.5 127.833,266.5 122.5,266.5C 122.5,246.167 122.5,225.833 122.5,205.5C 127.833,205.5 133.167,205.5 138.5,205.5 Z"/></g>
<g><path style="opacity:1" fill="#f9fdf3" d="M 155.5,205.5 C 167.505,205.333 179.505,205.5 191.5,206C 198.333,207.5 202.5,211.667 204,218.5C 204.499,223.155 204.666,227.821 204.5,232.5C 199.167,232.5 193.833,232.5 188.5,232.5C 188.926,227.968 187.926,223.801 185.5,220C 181.27,218.71 176.936,218.21 172.5,218.5C 172.5,229.167 172.5,239.833 172.5,250.5C 172.5,255.833 172.5,261.167 172.5,266.5C 166.833,266.5 161.167,266.5 155.5,266.5C 155.5,246.167 155.5,225.833 155.5,205.5 Z"/></g>
<g><path style="opacity:1" fill="#f8fcf2" d="M 285.5,252.5 C 291.31,253.49 297.31,253.823 303.5,253.5C 303.5,237.5 303.5,221.5 303.5,205.5C 308.833,205.5 314.167,205.5 319.5,205.5C 319.5,225.833 319.5,246.167 319.5,266.5C 320.07,276.543 315.736,283.376 306.5,287C 292.211,288.391 277.878,288.891 263.5,288.5C 263.5,283.833 263.5,279.167 263.5,274.5C 275.838,274.667 288.171,274.5 300.5,274C 302.278,271.865 302.945,269.365 302.5,266.5C 295.159,266.666 287.826,266.5 280.5,266C 272.845,264.345 267.679,259.845 265,252.5C 263.838,246.555 263.338,240.555 263.5,234.5C 263.5,224.5 263.5,214.5 263.5,204.5C 269.167,204.5 274.833,204.5 280.5,204.5C 280.333,218.504 280.5,232.504 281,246.5C 281.332,249.543 282.832,251.543 285.5,252.5 Z"/></g>
<g><path style="opacity:1" fill="#f9fdf3" d="M 464.5,205.5 C 474.5,205.5 484.5,205.5 494.5,205.5C 494.5,209.833 494.5,214.167 494.5,218.5C 484.828,218.334 475.161,218.5 465.5,219C 462.507,220.159 460.84,222.325 460.5,225.5C 459.566,226.568 459.232,227.901 459.5,229.5C 471.167,229.5 482.833,229.5 494.5,229.5C 494.5,233.5 494.5,237.5 494.5,241.5C 482.655,241.172 470.988,241.505 459.5,242.5C 459.857,247.698 462.524,251.198 467.5,253C 476.827,253.5 486.161,253.666 495.5,253.5C 495.5,257.833 495.5,262.167 495.5,266.5C 485.161,266.666 474.828,266.5 464.5,266C 450.229,262.392 442.396,253.225 441,238.5C 439.805,223.381 445.972,212.548 459.5,206C 461.134,205.506 462.801,205.34 464.5,205.5 Z"/></g>
<g><path style="opacity:1" fill="#a8ae81" d="M 320.5,246.5 C 320.824,253.354 320.491,260.021 319.5,266.5C 319.5,246.167 319.5,225.833 319.5,205.5C 314.167,205.5 308.833,205.5 303.5,205.5C 303.5,221.5 303.5,237.5 303.5,253.5C 297.31,253.823 291.31,253.49 285.5,252.5C 291.167,252.5 296.833,252.5 302.5,252.5C 302.5,236.5 302.5,220.5 302.5,204.5C 308.5,204.5 314.5,204.5 320.5,204.5C 320.5,218.5 320.5,232.5 320.5,246.5 Z"/></g>
<g><path style="opacity:1" fill="#919860" d="M 460.5,225.5 C 460.5,226.5 460.5,227.5 460.5,228.5C 472.012,228.172 483.346,228.505 494.5,229.5C 482.833,229.5 471.167,229.5 459.5,229.5C 459.232,227.901 459.566,226.568 460.5,225.5 Z"/></g>
<g><path style="opacity:1" fill="#d0d5b9" d="M 494.5,229.5 C 495.485,233.634 495.818,237.968 495.5,242.5C 483.5,242.5 471.5,242.5 459.5,242.5C 470.988,241.505 482.655,241.172 494.5,241.5C 494.5,237.5 494.5,233.5 494.5,229.5 Z"/></g>
<g><path style="opacity:1" fill="#6f7730" d="M 155.5,205.5 C 155.5,225.833 155.5,246.167 155.5,266.5C 161.167,266.5 166.833,266.5 172.5,266.5C 172.5,261.167 172.5,255.833 172.5,250.5C 185.171,250.667 197.838,250.5 210.5,250C 199.5,249.667 188.5,249.333 177.5,249C 183.167,248.667 188.833,248.333 194.5,248C 190.5,247.667 186.5,247.333 182.5,247C 194.495,246.5 206.495,246.333 218.5,246.5C 218.741,255.836 223.074,262.336 231.5,266C 238.158,266.5 244.825,266.666 251.5,266.5C 251.5,262.167 251.5,257.833 251.5,253.5C 248.15,253.665 244.817,253.498 241.5,253C 238.667,252.167 236.833,250.333 236,247.5C 235.175,237.658 235.342,227.991 236.5,218.5C 236.5,223.833 236.5,229.167 236.5,234.5C 245.5,234.5 254.5,234.5 263.5,234.5C 263.338,240.555 263.838,246.555 265,252.5C 267.679,259.845 272.845,264.345 280.5,266C 287.826,266.5 295.159,266.666 302.5,266.5C 302.945,269.365 302.278,271.865 300.5,274C 288.171,274.5 275.838,274.667 263.5,274.5C 263.5,279.167 263.5,283.833 263.5,288.5C 277.878,288.891 292.211,288.391 306.5,287C 315.736,283.376 320.07,276.543 319.5,266.5C 320.491,260.021 320.824,253.354 320.5,246.5C 325.294,247.097 329.627,246.43 333.5,244.5C 341.691,262.268 355.691,269.601 375.5,266.5C 374.391,267.29 373.058,267.79 371.5,268C 373.833,268.333 376.167,268.667 378.5,269C 370.833,269.333 363.167,269.667 355.5,270C 364.167,270.333 372.833,270.667 381.5,271C 379.5,271.333 377.5,271.667 375.5,272C 378.5,272.333 381.5,272.667 384.5,273C 377.5,273.333 370.5,273.667 363.5,274C 371.521,274.168 379.521,274.668 387.5,275.5C 388.025,276.192 388.692,276.692 389.5,277C 382.167,277.333 374.833,277.667 367.5,278C 375.833,278.333 384.167,278.667 392.5,279C 390.833,279.333 389.167,279.667 387.5,280C 389.833,280.333 392.167,280.667 394.5,281C 389.5,281.333 384.5,281.667 379.5,282C 385.5,282.333 391.5,282.667 397.5,283C 396.833,283.333 396.167,283.667 395.5,284C 396.833,284.333 398.167,284.667 399.5,285C 392.833,285.333 386.167,285.667 379.5,286C 386.833,286.333 394.167,286.667 401.5,287C 399.5,287.333 397.5,287.667 395.5,288C 398.5,288.333 401.5,288.667 404.5,289C 398.833,289.333 393.167,289.667 387.5,290C 393.833,290.333 400.167,290.667 406.5,291C 405.5,291.333 404.5,291.667 403.5,292C 405.167,292.333 406.833,292.667 408.5,293C 401.5,293.333 394.5,293.667 387.5,294C 395.167,294.333 402.833,294.667 410.5,295C 408.167,295.333 405.833,295.667 403.5,296C 406.5,296.333 409.5,296.667 412.5,297C 410.618,297.198 408.952,297.698 407.5,298.5C 406.502,326.328 406.169,354.328 406.5,382.5C 308.167,382.5 209.833,382.5 111.5,382.5C 111.5,354.167 111.5,325.833 111.5,297.5C 109.5,297.5 107.5,297.5 105.5,297.5C 108.305,296.681 111.305,296.181 114.5,296C 112.167,295.667 109.833,295.333 107.5,295C 115.167,294.667 122.833,294.333 130.5,294C 123.5,293.667 116.5,293.333 109.5,293C 111.167,292.667 112.833,292.333 114.5,292C 113.5,291.667 112.5,291.333 111.5,291C 117.833,290.667 124.167,290.333 130.5,290C 124.833,289.667 119.167,289.333 113.5,289C 116.5,288.667 119.5,288.333 122.5,288C 120.5,287.667 118.5,287.333 116.5,287C 123.833,286.667 131.167,286.333 138.5,286C 131.833,285.667 125.167,285.333 118.5,285C 119.833,284.667 121.167,284.333 122.5,284C 121.833,283.667 121.167,283.333 120.5,283C 126.5,282.667 132.5,282.333 138.5,282C 133.5,281.667 128.5,281.333 123.5,281C 125.833,280.667 128.167,280.333 130.5,280C 128.833,279.667 127.167,279.333 125.5,279C 133.833,278.667 142.167,278.333 150.5,278C 143.167,277.667 135.833,277.333 128.5,277C 129.308,276.692 129.975,276.192 130.5,275.5C 138.479,274.668 146.479,274.168 154.5,274C 147.5,273.667 140.5,273.333 133.5,273C 136.5,272.667 139.5,272.333 142.5,272C 140.5,271.667 138.5,271.333 136.5,271C 145.167,270.667 153.833,270.333 162.5,270C 154.833,269.667 147.167,269.333 139.5,269C 141.833,268.667 144.167,268.333 146.5,268C 145.167,267.667 143.833,267.333 142.5,267C 146.486,266.501 150.486,266.334 154.5,266.5C 154.17,245.993 154.503,225.66 155.5,205.5 Z"/></g>
<g><path style="opacity:1" fill="#d07c1b" d="M 95.5,298.5 C 100.5,298.5 105.5,298.5 110.5,298.5C 110.169,327.005 110.502,355.338 111.5,383.5C 210.167,383.5 308.833,383.5 407.5,383.5C 407.5,355.167 407.5,326.833 407.5,298.5C 412.833,298.5 418.167,298.5 423.5,298.5C 423.5,332.167 423.5,365.833 423.5,399.5C 314.167,399.5 204.833,399.5 95.5,399.5C 95.5,365.833 95.5,332.167 95.5,298.5 Z"/></g>
<g><path style="opacity:1" fill="#b77a21" d="M 95.5,298.5 C 98.6248,297.521 101.958,297.187 105.5,297.5C 107.5,297.5 109.5,297.5 111.5,297.5C 111.5,325.833 111.5,354.167 111.5,382.5C 111.5,382.833 111.5,383.167 111.5,383.5C 110.502,355.338 110.169,327.005 110.5,298.5C 105.5,298.5 100.5,298.5 95.5,298.5 Z"/></g>
<g><path style="opacity:1" fill="#6f772f" d="M 423.5,298.5 C 424.193,302.565 424.86,306.732 425.5,311C 425.167,311.333 424.833,311.667 424.5,312C 427.167,312.667 427.167,313.333 424.5,314C 427.28,314.37 429.28,315.37 430.5,317C 422.833,317.813 423.166,318.479 431.5,319C 430.167,319.333 428.833,319.667 427.5,320C 429.5,320.333 431.5,320.667 433.5,321C 430.5,321.333 427.5,321.667 424.5,322C 427.833,322.333 431.167,322.667 434.5,323C 433.5,323.333 432.5,323.667 431.5,324C 433.167,324.333 434.833,324.667 436.5,325C 430.163,325.837 430.497,326.503 437.5,327C 433.167,327.333 428.833,327.667 424.5,328C 429.167,328.333 433.833,328.667 438.5,329C 437.5,329.333 436.5,329.667 435.5,330C 437.167,330.333 438.833,330.667 440.5,331C 435.167,331.333 429.833,331.667 424.5,332C 430.167,332.333 435.833,332.667 441.5,333C 433.833,333.813 434.166,334.479 442.5,335C 437.5,335.333 432.5,335.667 427.5,336C 432.864,336.171 438.198,336.671 443.5,337.5C 444.025,338.192 444.692,338.692 445.5,339C 439.5,339.333 433.5,339.667 427.5,340C 433.833,340.333 440.167,340.667 446.5,341C 442.815,341.914 443.148,342.581 447.5,343C 443.5,343.333 439.5,343.667 435.5,344C 439.833,344.333 444.167,344.667 448.5,345C 447.366,346.016 447.699,346.683 449.5,347C 444.833,347.333 440.167,347.667 435.5,348C 440.5,348.333 445.5,348.667 450.5,349C 448.167,349.333 445.833,349.667 443.5,350C 446.167,350.333 448.833,350.667 451.5,351C 447.5,351.333 443.5,351.667 439.5,352C 443.833,352.333 448.167,352.667 452.5,353C 451.366,354.016 451.699,354.683 453.5,355C 448.833,355.333 444.167,355.667 439.5,356C 444.5,356.333 449.5,356.667 454.5,357C 450.815,357.914 451.148,358.581 455.5,359C 451.5,359.333 447.5,359.667 443.5,360C 447.833,360.333 452.167,360.667 456.5,361C 455.366,362.016 455.699,362.683 457.5,363C 452.833,363.333 448.167,363.667 443.5,364C 448.5,364.333 453.5,364.667 458.5,365C 456.167,365.333 453.833,365.667 451.5,366C 454.167,366.333 456.833,366.667 459.5,367C 443.541,367.505 443.541,368.339 459.5,369.5C 459.709,370.086 460.043,370.586 460.5,371C 454.833,371.333 449.167,371.667 443.5,372C 449.5,372.333 455.5,372.667 461.5,373C 453.833,373.813 454.166,374.479 462.5,375C 447.833,375.667 447.833,376.333 462.5,377C 458.815,377.914 459.148,378.581 463.5,379C 458.167,379.333 452.833,379.667 447.5,380C 453.167,380.333 458.833,380.667 464.5,381C 457.833,381.667 457.833,382.333 464.5,383C 460.167,383.333 455.833,383.667 451.5,384C 456.167,384.333 460.833,384.667 465.5,385C 463.122,385.974 463.456,386.641 466.5,387C 446.5,387.667 446.5,388.333 466.5,389C 464.167,389.333 461.833,389.667 459.5,390C 462.167,390.333 464.833,390.667 467.5,391C 451.541,391.505 451.541,392.339 467.5,393.5C 467.709,394.086 468.043,394.586 468.5,395C 445.833,395.667 445.833,396.333 468.5,397C 462.163,397.837 462.497,398.503 469.5,399C 456.167,399.667 456.167,400.333 469.5,401C 467.122,401.974 467.456,402.641 470.5,403C 450.5,403.667 450.5,404.333 470.5,405C 466.815,405.914 467.148,406.581 471.5,407C 455.5,407.667 455.5,408.333 471.5,409C 466.167,409.667 466.167,410.333 471.5,411C 467.5,411.333 463.5,411.667 459.5,412C 463.833,412.333 468.167,412.667 472.5,413C 465.833,413.667 465.833,414.333 472.5,415C 455.167,415.667 455.167,416.333 472.5,417C 471.366,418.016 471.699,418.683 473.5,419C 454.833,419.667 454.833,420.333 473.5,421C 465.5,421.667 465.5,422.333 473.5,423C 468.833,423.333 464.167,423.667 459.5,424C 464.5,424.333 469.5,424.667 474.5,425C 470.5,425.667 470.5,426.333 474.5,427C 454.5,427.667 454.5,428.333 474.5,429C 465.167,429.667 465.167,430.333 474.5,431C 459.833,431.667 459.833,432.333 474.5,433C 470.5,433.667 470.5,434.333 474.5,435C 469.5,435.333 464.5,435.667 459.5,436C 464.833,436.333 470.167,436.667 475.5,437C 470.167,437.667 470.167,438.333 475.5,439C 459.5,439.667 459.5,440.333 475.5,441C 470.167,441.667 470.167,442.333 475.5,443C 454.167,443.667 454.167,444.333 475.5,445C 470.167,445.667 470.167,446.333 475.5,447C 459.514,447.832 459.514,448.332 475.5,448.5C 475.5,449.5 475.5,450.5 475.5,451.5C 454.177,451.668 454.177,452.168 475.5,453C 470.167,453.667 470.167,454.333 475.5,455C 459.5,455.667 459.5,456.333 475.5,457C 470.167,457.667 470.167,458.333 475.5,459C 454.167,459.667 454.167,460.333 475.5,461C 470.167,461.667 470.167,462.333 475.5,463C 459.5,463.667 459.5,464.333 475.5,465C 471.148,465.419 470.815,466.086 474.5,467C 454.5,467.667 454.5,468.333 474.5,469C 465.167,469.667 465.167,470.333 474.5,471C 459.833,471.667 459.833,472.333 474.5,473C 471.456,473.359 471.122,474.026 473.5,475C 454.833,475.667 454.833,476.333 473.5,477C 465.5,477.667 465.5,478.333 473.5,479C 454.833,479.667 454.833,480.333 473.5,481C 471.699,481.317 471.366,481.984 472.5,483C 455.167,483.667 455.167,484.333 472.5,485C 465.833,485.667 465.833,486.333 472.5,487C 468.167,487.333 463.833,487.667 459.5,488C 463.688,488.176 467.688,488.676 471.5,489.5C 427.833,489.5 384.167,489.5 340.5,489.5C 337.695,488.681 334.695,488.181 331.5,488C 334.833,487.667 338.167,487.333 341.5,487C 339.122,486.026 339.456,485.359 342.5,485C 327.833,484.333 327.833,483.667 342.5,483C 338.815,482.086 339.148,481.419 343.5,481C 340.833,480.667 338.167,480.333 335.5,480C 338.5,479.667 341.5,479.333 344.5,479C 338.163,478.163 338.497,477.497 345.5,477C 332.167,476.333 332.167,475.667 345.5,475C 343.122,474.026 343.456,473.359 346.5,473C 337.167,472.333 337.167,471.667 346.5,471C 342.815,470.086 343.148,469.419 347.5,469C 336.894,468.488 336.894,467.655 347.5,466.5C 347.709,465.914 348.043,465.414 348.5,465C 336.5,464.333 336.5,463.667 348.5,463C 341.833,462.333 341.833,461.667 348.5,461C 336.554,460.491 336.554,459.658 348.5,458.5C 348.709,457.914 349.043,457.414 349.5,457C 336.167,456.333 336.167,455.667 349.5,455C 346.833,454.333 346.833,453.667 349.5,453C 336.167,452.333 336.167,451.667 349.5,451C 346.833,450.333 346.833,449.667 349.5,449C 336.167,448.333 336.167,447.667 349.5,447C 346.833,446.333 346.833,445.667 349.5,445C 336.167,444.333 336.167,443.667 349.5,443C 346.627,440.908 343.293,439.908 339.5,440C 342.5,439.667 345.5,439.333 348.5,439C 341.833,438.333 341.833,437.667 348.5,437C 336.554,436.491 336.554,435.658 348.5,434.5C 348.291,433.914 347.957,433.414 347.5,433C 336.833,432.333 336.833,431.667 347.5,431C 343.148,430.581 342.815,429.914 346.5,429C 331.833,428.333 331.833,427.667 346.5,427C 343.456,426.641 343.122,425.974 345.5,425C 332.167,424.333 332.167,423.667 345.5,423C 338.497,422.503 338.163,421.837 344.5,421C 332.5,420.333 332.5,419.667 344.5,419C 338.825,418.536 338.492,417.869 343.5,417C 340.833,416.667 338.167,416.333 335.5,416C 337.833,415.667 340.167,415.333 342.5,415C 339.456,414.641 339.122,413.974 341.5,413C 338.167,412.667 334.833,412.333 331.5,412C 343.276,410.881 343.276,409.547 331.5,408C 333.833,407.667 336.167,407.333 338.5,407C 335.456,406.641 335.122,405.974 337.5,405C 332.833,404.667 328.167,404.333 323.5,404C 327.833,403.667 332.167,403.333 336.5,403C 330.825,402.536 330.492,401.869 335.5,401C 284.5,400.333 233.5,400.333 182.5,401C 187.508,401.869 187.175,402.536 181.5,403C 182.634,404.016 182.301,404.683 180.5,405C 182.878,405.974 182.544,406.641 179.5,407C 181.833,407.333 184.167,407.667 186.5,408C 174.724,409.547 174.724,410.881 186.5,412C 183.167,412.333 179.833,412.667 176.5,413C 178.878,413.974 178.544,414.641 175.5,415C 177.833,415.333 180.167,415.667 182.5,416C 179.833,416.333 177.167,416.667 174.5,417C 179.508,417.869 179.175,418.536 173.5,419C 174.833,419.667 174.833,420.333 173.5,421C 179.837,421.837 179.503,422.503 172.5,423C 185.833,423.667 185.833,424.333 172.5,425C 174.878,425.974 174.544,426.641 171.5,427C 186.167,427.667 186.167,428.333 171.5,429C 175.185,429.914 174.852,430.581 170.5,431C 181.167,431.667 181.167,432.333 170.5,433C 170.043,433.414 169.709,433.914 169.5,434.5C 170.641,435.425 170.641,436.259 169.5,437C 176.167,437.667 176.167,438.333 169.5,439C 181.446,439.509 181.446,440.342 169.5,441.5C 169.291,442.086 168.957,442.586 168.5,443C 181.833,443.667 181.833,444.333 168.5,445C 171.167,445.667 171.167,446.333 168.5,447C 181.833,447.667 181.833,448.333 168.5,449C 171.167,449.667 171.167,450.333 168.5,451C 181.833,451.667 181.833,452.333 168.5,453C 171.167,453.667 171.167,454.333 168.5,455C 181.833,455.667 181.833,456.333 168.5,457C 171.373,459.092 174.707,460.092 178.5,460C 175.5,460.333 172.5,460.667 169.5,461C 176.167,461.667 176.167,462.333 169.5,463C 181.5,463.667 181.5,464.333 169.5,465C 170.38,466.356 170.714,467.856 170.5,469.5C 174.893,469.457 175.226,469.957 171.5,471C 180.833,471.667 180.833,472.333 171.5,473C 174.544,473.359 174.878,474.026 172.5,475C 175.167,475.667 175.167,476.333 172.5,477C 179.503,477.497 179.837,478.163 173.5,479C 176.5,479.333 179.5,479.667 182.5,480C 179.833,480.333 177.167,480.667 174.5,481C 178.852,481.419 179.185,482.086 175.5,483C 190.167,483.667 190.167,484.333 175.5,485C 178.544,485.359 178.878,486.026 176.5,487C 179.833,487.333 183.167,487.667 186.5,488C 183.305,488.181 180.305,488.681 177.5,489.5C 133.833,489.5 90.1667,489.5 46.5,489.5C 50.3123,488.676 54.3123,488.176 58.5,488C 54.1667,487.667 49.8333,487.333 45.5,487C 52.1667,486.333 52.1667,485.667 45.5,485C 62.8333,484.333 62.8333,483.667 45.5,483C 46.6341,481.984 46.3008,481.317 44.5,481C 63.1667,480.333 63.1667,479.667 44.5,479C 52.5,478.333 52.5,477.667 44.5,477C 63.1667,476.333 63.1667,475.667 44.5,475C 46.8776,474.026 46.5443,473.359 43.5,473C 58.1667,472.333 58.1667,471.667 43.5,471C 52.8333,470.333 52.8333,469.667 43.5,469C 63.5,468.333 63.5,467.667 43.5,467C 47.1851,466.086 46.8518,465.419 42.5,465C 58.5,464.333 58.5,463.667 42.5,463C 47.8333,462.333 47.8333,461.667 42.5,461C 63.8333,460.333 63.8333,459.667 42.5,459C 47.8333,458.333 47.8333,457.667 42.5,457C 58.5,456.333 58.5,455.667 42.5,455C 47.8333,454.333 47.8333,453.667 42.5,453C 63.8229,452.168 63.8229,451.668 42.5,451.5C 42.5,450.5 42.5,449.5 42.5,448.5C 58.4862,448.332 58.4862,447.832 42.5,447C 47.8333,446.333 47.8333,445.667 42.5,445C 63.8333,444.333 63.8333,443.667 42.5,443C 47.8333,442.333 47.8333,441.667 42.5,441C 58.5,440.333 58.5,439.667 42.5,439C 47.8333,438.333 47.8333,437.667 42.5,437C 47.8333,436.667 53.1667,436.333 58.5,436C 53.5,435.667 48.5,435.333 43.5,435C 47.5,434.333 47.5,433.667 43.5,433C 58.1667,432.333 58.1667,431.667 43.5,431C 52.8333,430.333 52.8333,429.667 43.5,429C 63.5,428.333 63.5,427.667 43.5,427C 47.5,426.333 47.5,425.667 43.5,425C 48.5,424.667 53.5,424.333 58.5,424C 53.8333,423.667 49.1667,423.333 44.5,423C 52.5,422.333 52.5,421.667 44.5,421C 63.1667,420.333 63.1667,419.667 44.5,419C 46.3008,418.683 46.6341,418.016 45.5,417C 62.8333,416.333 62.8333,415.667 45.5,415C 52.1667,414.333 52.1667,413.667 45.5,413C 49.8333,412.667 54.1667,412.333 58.5,412C 54.5,411.667 50.5,411.333 46.5,411C 51.8333,410.333 51.8333,409.667 46.5,409C 62.5,408.333 62.5,407.667 46.5,407C 50.8518,406.581 51.1851,405.914 47.5,405C 67.5,404.333 67.5,403.667 47.5,403C 50.5443,402.641 50.8776,401.974 48.5,401C 61.8333,400.333 61.8333,399.667 48.5,399C 55.5032,398.503 55.8365,397.837 49.5,397C 72.1667,396.333 72.1667,395.667 49.5,395C 49.9574,394.586 50.2907,394.086 50.5,393.5C 66.4589,392.339 66.4589,391.505 50.5,391C 53.1667,390.667 55.8333,390.333 58.5,390C 56.1667,389.667 53.8333,389.333 51.5,389C 71.5,388.333 71.5,387.667 51.5,387C 54.5443,386.641 54.8776,385.974 52.5,385C 57.1667,384.667 61.8333,384.333 66.5,384C 62.1667,383.667 57.8333,383.333 53.5,383C 60.1667,382.333 60.1667,381.667 53.5,381C 59.1667,380.667 64.8333,380.333 70.5,380C 65.1667,379.667 59.8333,379.333 54.5,379C 58.8518,378.581 59.1851,377.914 55.5,377C 70.1667,376.333 70.1667,375.667 55.5,375C 63.8339,374.479 64.1672,373.813 56.5,373C 62.5,372.667 68.5,372.333 74.5,372C 68.8333,371.667 63.1667,371.333 57.5,371C 57.9574,370.586 58.2907,370.086 58.5,369.5C 74.4589,368.339 74.4589,367.505 58.5,367C 61.1667,366.667 63.8333,366.333 66.5,366C 64.1667,365.667 61.8333,365.333 59.5,365C 64.5,364.667 69.5,364.333 74.5,364C 69.8333,363.667 65.1667,363.333 60.5,363C 62.3008,362.683 62.6341,362.016 61.5,361C 65.8333,360.667 70.1667,360.333 74.5,360C 70.5,359.667 66.5,359.333 62.5,359C 66.8518,358.581 67.1851,357.914 63.5,357C 68.5,356.667 73.5,356.333 78.5,356C 73.8333,355.667 69.1667,355.333 64.5,355C 66.3008,354.683 66.6341,354.016 65.5,353C 69.8333,352.667 74.1667,352.333 78.5,352C 74.5,351.667 70.5,351.333 66.5,351C 69.1667,350.667 71.8333,350.333 74.5,350C 72.1667,349.667 69.8333,349.333 67.5,349C 72.5,348.667 77.5,348.333 82.5,348C 77.8333,347.667 73.1667,347.333 68.5,347C 70.3008,346.683 70.6341,346.016 69.5,345C 73.8333,344.667 78.1667,344.333 82.5,344C 78.5,343.667 74.5,343.333 70.5,343C 74.8518,342.581 75.1851,341.914 71.5,341C 77.8333,340.667 84.1667,340.333 90.5,340C 84.5,339.667 78.5,339.333 72.5,339C 73.3081,338.692 73.9747,338.192 74.5,337.5C 79.8025,336.671 85.1358,336.171 90.5,336C 85.5,335.667 80.5,335.333 75.5,335C 83.8339,334.479 84.1672,333.813 76.5,333C 82.4908,332.501 88.4908,332.334 94.5,332.5C 94.1692,355.006 94.5026,377.34 95.5,399.5C 204.833,399.5 314.167,399.5 423.5,399.5C 423.5,365.833 423.5,332.167 423.5,298.5 Z"/></g>
<g><path style="opacity:1" fill="#86782b" d="M 407.5,298.5 C 407.5,326.833 407.5,355.167 407.5,383.5C 308.833,383.5 210.167,383.5 111.5,383.5C 111.5,383.167 111.5,382.833 111.5,382.5C 209.833,382.5 308.167,382.5 406.5,382.5C 406.169,354.328 406.502,326.328 407.5,298.5 Z"/></g>
<g><path style="opacity:1" fill="#717832" d="M 340.5,489.5 C 286.167,489.5 231.833,489.5 177.5,489.5C 180.305,488.681 183.305,488.181 186.5,488C 183.167,487.667 179.833,487.333 176.5,487C 178.878,486.026 178.544,485.359 175.5,485C 190.167,484.333 190.167,483.667 175.5,483C 179.185,482.086 178.852,481.419 174.5,481C 177.167,480.667 179.833,480.333 182.5,480C 179.5,479.667 176.5,479.333 173.5,479C 179.837,478.163 179.503,477.497 172.5,477C 175.167,476.333 175.167,475.667 172.5,475C 174.878,474.026 174.544,473.359 171.5,473C 180.833,472.333 180.833,471.667 171.5,471C 175.226,469.957 174.893,469.457 170.5,469.5C 170.714,467.856 170.38,466.356 169.5,465C 181.5,464.333 181.5,463.667 169.5,463C 176.167,462.333 176.167,461.667 169.5,461C 172.5,460.667 175.5,460.333 178.5,460C 174.707,460.092 171.373,459.092 168.5,457C 181.833,456.333 181.833,455.667 168.5,455C 171.167,454.333 171.167,453.667 168.5,453C 181.833,452.333 181.833,451.667 168.5,451C 171.167,450.333 171.167,449.667 168.5,449C 181.833,448.333 181.833,447.667 168.5,447C 171.167,446.333 171.167,445.667 168.5,445C 181.833,444.333 181.833,443.667 168.5,443C 168.957,442.586 169.291,442.086 169.5,441.5C 181.446,440.342 181.446,439.509 169.5,439C 176.167,438.333 176.167,437.667 169.5,437C 170.641,436.259 170.641,435.425 169.5,434.5C 169.709,433.914 170.043,433.414 170.5,433C 181.167,432.333 181.167,431.667 170.5,431C 174.852,430.581 175.185,429.914 171.5,429C 186.167,428.333 186.167,427.667 171.5,427C 174.544,426.641 174.878,425.974 172.5,425C 185.833,424.333 185.833,423.667 172.5,423C 179.503,422.503 179.837,421.837 173.5,421C 174.833,420.333 174.833,419.667 173.5,419C 179.175,418.536 179.508,417.869 174.5,417C 177.167,416.667 179.833,416.333 182.5,416C 180.167,415.667 177.833,415.333 175.5,415C 178.544,414.641 178.878,413.974 176.5,413C 179.833,412.667 183.167,412.333 186.5,412C 174.724,410.881 174.724,409.547 186.5,408C 184.167,407.667 181.833,407.333 179.5,407C 182.544,406.641 182.878,405.974 180.5,405C 182.301,404.683 182.634,404.016 181.5,403C 187.175,402.536 187.508,401.869 182.5,401C 233.5,400.333 284.5,400.333 335.5,401C 330.492,401.869 330.825,402.536 336.5,403C 332.167,403.333 327.833,403.667 323.5,404C 328.167,404.333 332.833,404.667 337.5,405C 335.122,405.974 335.456,406.641 338.5,407C 336.167,407.333 333.833,407.667 331.5,408C 343.276,409.547 343.276,410.881 331.5,412C 334.833,412.333 338.167,412.667 341.5,413C 339.122,413.974 339.456,414.641 342.5,415C 340.167,415.333 337.833,415.667 335.5,416C 338.167,416.333 340.833,416.667 343.5,417C 338.492,417.869 338.825,418.536 344.5,419C 332.5,419.667 332.5,420.333 344.5,421C 338.163,421.837 338.497,422.503 345.5,423C 332.167,423.667 332.167,424.333 345.5,425C 343.122,425.974 343.456,426.641 346.5,427C 331.833,427.667 331.833,428.333 346.5,429C 342.815,429.914 343.148,430.581 347.5,431C 336.833,431.667 336.833,432.333 347.5,433C 347.957,433.414 348.291,433.914 348.5,434.5C 336.554,435.658 336.554,436.491 348.5,437C 341.833,437.667 341.833,438.333 348.5,439C 345.5,439.333 342.5,439.667 339.5,440C 343.293,439.908 346.627,440.908 349.5,443C 336.167,443.667 336.167,444.333 349.5,445C 346.833,445.667 346.833,446.333 349.5,447C 336.167,447.667 336.167,448.333 349.5,449C 346.833,449.667 346.833,450.333 349.5,451C 336.167,451.667 336.167,452.333 349.5,453C 346.833,453.667 346.833,454.333 349.5,455C 336.167,455.667 336.167,456.333 349.5,457C 349.043,457.414 348.709,457.914 348.5,458.5C 336.554,459.658 336.554,460.491 348.5,461C 341.833,461.667 341.833,462.333 348.5,463C 336.5,463.667 336.5,464.333 348.5,465C 348.043,465.414 347.709,465.914 347.5,466.5C 336.894,467.655 336.894,468.488 347.5,469C 343.148,469.419 342.815,470.086 346.5,471C 337.167,471.667 337.167,472.333 346.5,473C 343.456,473.359 343.122,474.026 345.5,475C 332.167,475.667 332.167,476.333 345.5,477C 338.497,477.497 338.163,478.163 344.5,479C 341.5,479.333 338.5,479.667 335.5,480C 338.167,480.333 340.833,480.667 343.5,481C 339.148,481.419 338.815,482.086 342.5,483C 327.833,483.667 327.833,484.333 342.5,485C 339.456,485.359 339.122,486.026 341.5,487C 338.167,487.333 334.833,487.667 331.5,488C 334.695,488.181 337.695,488.681 340.5,489.5 Z"/></g>
</svg>
